# xmcd
#
# Track frame offsets:
#	150
#	10127
#	22574
#	38947
#	52067
#	70678
#	82888
#	106510
#	120307
#	138607
#	154673
#	170303
#	185153
#	199713
#	216353
#
# Disc length: 3227 seconds
#
# Revision: 1
# Processed by: cddbd v1.5.1PL0 Copyright (c) Steve Scherf et al.
# Submitted via: CDex 1.50Beta5
#
DISCID=bc0c990f
DTITLE=eden - error404
DYEAR=1900
DGENRE=
TTITLE0=Last Regrets
TTITLE1=requiem
TTITLE2=シアワセノサガシカタ
TTITLE3=ためいき
TTITLE4=グリーングリーン
TTITLE5=月下
TTITLE6=鳥の詩
TTITLE7=sin(BAD END)
TTITLE8=瑠璃子
TTITLE9=error404
TTITLE10=Red tint
TTITLE11=神薙
TTITLE12=推理
TTITLE13=Moon Tears
TTITLE14=End Of Summer
EXTD=
EXTT0=
EXTT1=
EXTT2=
EXTT3=
EXTT4=
EXTT5=
EXTT6=
EXTT7=
EXTT8=
EXTT9=
EXTT10=
EXTT11=
EXTT12=
EXTT13=
EXTT14=
PLAYORDER=
